<svg xmlns="http://www.w3.org/2000/svg" width="1000" height="1474" viewBox="0 0 1000 1474" font-family="-apple-system,Segoe UI,system-ui,sans-serif"><defs><linearGradient id="g0" x1="0%" y1="0%" x2="100%" y2="0%"><stop offset="0.0%" stop-color="#1F6F4A"/><stop offset="50.0%" stop-color="#69DB88"/><stop offset="100.0%" stop-color="#EAFBEF"/></linearGradient><linearGradient id="g1" x1="0%" y1="0%" x2="100%" y2="0%"><stop offset="0.0%" stop-color="#0A2A4A"/><stop offset="50.0%" stop-color="#2878C8"/><stop offset="100.0%" stop-color="#9FD0F5"/></linearGradient><linearGradient id="g2" x1="0%" y1="0%" x2="100%" y2="0%"><stop offset="0.0%" stop-color="#04222B"/><stop offset="50.0%" stop-color="#1EB4A5"/><stop offset="100.0%" stop-color="#9AF0E1"/></linearGradient><linearGradient id="g3" x1="0%" y1="0%" x2="100%" y2="0%"><stop offset="0.0%" stop-color="#3A4A8C"/><stop offset="20.0%" stop-color="#2A9D8F"/><stop offset="40.0%" stop-color="#88C43C"/><stop offset="60.0%" stop-color="#F0A020"/><stop offset="80.0%" stop-color="#E0402A"/><stop offset="100.0%" stop-color="#9A2EA0"/></linearGradient><linearGradient id="g4" x1="0%" y1="0%" x2="100%" y2="0%"><stop offset="0.0%" stop-color="#00E400"/><stop offset="25.0%" stop-color="#FFFF00"/><stop offset="50.0%" stop-color="#FF7E00"/><stop offset="75.0%" stop-color="#FF0000"/><stop offset="100.0%" stop-color="#8F3F97"/></linearGradient><linearGradient id="g5" x1="0%" y1="0%" x2="100%" y2="0%"><stop offset="0.0%" stop-color="#00E400"/><stop offset="25.0%" stop-color="#FFFF00"/><stop offset="50.0%" stop-color="#FF7E00"/><stop offset="75.0%" stop-color="#FF0000"/><stop offset="100.0%" stop-color="#8F3F97"/></linearGradient><linearGradient id="g6" x1="0%" y1="0%" x2="100%" y2="0%"><stop offset="0.0%" stop-color="#14286E"/><stop offset="20.0%" stop-color="#1E968C"/><stop offset="40.0%" stop-color="#96C83C"/><stop offset="60.0%" stop-color="#F0961E"/><stop offset="80.0%" stop-color="#DC281E"/><stop offset="100.0%" stop-color="#B41E8C"/></linearGradient><linearGradient id="g7" x1="0%" y1="0%" x2="100%" y2="0%"><stop offset="0.0%" stop-color="#0A0A28"/><stop offset="25.0%" stop-color="#283C8C"/><stop offset="50.0%" stop-color="#2878C8"/><stop offset="75.0%" stop-color="#32C8D2"/><stop offset="100.0%" stop-color="#E6FAFF"/></linearGradient><linearGradient id="g8" x1="0%" y1="0%" x2="100%" y2="0%"><stop offset="0.0%" stop-color="#281204"/><stop offset="33.3%" stop-color="#A05012"/><stop offset="66.7%" stop-color="#DC8C1E"/><stop offset="100.0%" stop-color="#FFE08C"/></linearGradient><linearGradient id="g9" x1="0%" y1="0%" x2="100%" y2="0%"><stop offset="0.0%" stop-color="#00E400"/><stop offset="25.0%" stop-color="#FFFF00"/><stop offset="50.0%" stop-color="#FF7E00"/><stop offset="75.0%" stop-color="#FF0000"/><stop offset="100.0%" stop-color="#8F3F97"/></linearGradient><linearGradient id="g10" x1="0%" y1="0%" x2="100%" y2="0%"><stop offset="0.0%" stop-color="#1B0C40"/><stop offset="12.5%" stop-color="#2030C0"/><stop offset="25.0%" stop-color="#00B4D2"/><stop offset="37.5%" stop-color="#28B45A"/><stop offset="50.0%" stop-color="#EBDC3C"/><stop offset="62.5%" stop-color="#F08C1E"/><stop offset="75.0%" stop-color="#DC281E"/><stop offset="87.5%" stop-color="#C83C8C"/><stop offset="100.0%" stop-color="#FAF0F5"/></linearGradient><linearGradient id="g11" x1="0%" y1="0%" x2="100%" y2="0%"><stop offset="0.0%" stop-color="#1B0C40"/><stop offset="12.5%" stop-color="#2030C0"/><stop offset="25.0%" stop-color="#00B4D2"/><stop offset="37.5%" stop-color="#28B45A"/><stop offset="50.0%" stop-color="#EBDC3C"/><stop offset="62.5%" stop-color="#F08C1E"/><stop offset="75.0%" stop-color="#DC281E"/><stop offset="87.5%" stop-color="#C83C8C"/><stop offset="100.0%" stop-color="#FAF0F5"/></linearGradient><linearGradient id="g12" x1="0%" y1="0%" x2="100%" y2="0%"><stop offset="0.0%" stop-color="#1B0C40"/><stop offset="12.5%" stop-color="#2030C0"/><stop offset="25.0%" stop-color="#00B4D2"/><stop offset="37.5%" stop-color="#28B45A"/><stop offset="50.0%" stop-color="#EBDC3C"/><stop offset="62.5%" stop-color="#F08C1E"/><stop offset="75.0%" stop-color="#DC281E"/><stop offset="87.5%" stop-color="#C83C8C"/><stop offset="100.0%" stop-color="#FAF0F5"/></linearGradient><linearGradient id="g13" x1="0%" y1="0%" x2="100%" y2="0%"><stop offset="0.0%" stop-color="#5A3C10"/><stop offset="25.0%" stop-color="#9C7A28"/><stop offset="50.0%" stop-color="#C8C84B"/><stop offset="75.0%" stop-color="#5AAA32"/><stop offset="100.0%" stop-color="#0A6E1E"/></linearGradient><linearGradient id="g14" x1="0%" y1="0%" x2="100%" y2="0%"><stop offset="0.0%" stop-color="#0A0A28"/><stop offset="25.0%" stop-color="#283C8C"/><stop offset="50.0%" stop-color="#2878C8"/><stop offset="75.0%" stop-color="#32C8D2"/><stop offset="100.0%" stop-color="#E6FAFF"/></linearGradient><linearGradient id="g15" x1="0%" y1="0%" x2="100%" y2="0%"><stop offset="0.0%" stop-color="#3B2F24"/><stop offset="50.0%" stop-color="#8A6D4B"/><stop offset="100.0%" stop-color="#C9A978"/></linearGradient><linearGradient id="g19" x1="0%" y1="0%" x2="100%" y2="0%"><stop offset="0.0%" stop-color="#C4C4C4"/><stop offset="50.0%" stop-color="#858585"/><stop offset="100.0%" stop-color="#4A4A4A"/></linearGradient><linearGradient id="g20" x1="0%" y1="0%" x2="100%" y2="0%"><stop offset="0.0%" stop-color="#FCE7A0"/><stop offset="50.0%" stop-color="#EDC303"/><stop offset="100.0%" stop-color="#9A7A06"/></linearGradient><linearGradient id="g21" x1="0%" y1="0%" x2="100%" y2="0%"><stop offset="0.0%" stop-color="#F3C9DD"/><stop offset="50.0%" stop-color="#DD6FA1"/><stop offset="100.0%" stop-color="#8E3A66"/></linearGradient><linearGradient id="g22" x1="0%" y1="0%" x2="100%" y2="0%"><stop offset="0.0%" stop-color="#E9D5FF"/><stop offset="50.0%" stop-color="#A855F7"/><stop offset="100.0%" stop-color="#6B21A8"/></linearGradient><linearGradient id="g23" x1="0%" y1="0%" x2="100%" y2="0%"><stop offset="0.0%" stop-color="#F9A8C0"/><stop offset="50.0%" stop-color="#ED2461"/><stop offset="100.0%" stop-color="#A10E3C"/></linearGradient><linearGradient id="g24" x1="0%" y1="0%" x2="100%" y2="0%"><stop offset="0.0%" stop-color="#F2ECD5"/><stop offset="50.0%" stop-color="#E3D6AA"/><stop offset="100.0%" stop-color="#A89A66"/></linearGradient><linearGradient id="g25" x1="0%" y1="0%" x2="100%" y2="0%"><stop offset="0.0%" stop-color="#BBF7D0"/><stop offset="50.0%" stop-color="#16A34A"/><stop offset="100.0%" stop-color="#14532D"/></linearGradient><linearGradient id="g26" x1="0%" y1="0%" x2="100%" y2="0%"><stop offset="0.0%" stop-color="#99F6E4"/><stop offset="50.0%" stop-color="#14B8A6"/><stop offset="100.0%" stop-color="#0F766E"/></linearGradient><linearGradient id="g27" x1="0%" y1="0%" x2="100%" y2="0%"><stop offset="0.0%" stop-color="#F97316"/><stop offset="100.0%" stop-color="#B91C1C"/></linearGradient><linearGradient id="g28" x1="0%" y1="0%" x2="100%" y2="0%"><stop offset="0.0%" stop-color="#5AC8FA"/><stop offset="50.0%" stop-color="#F0BE46"/><stop offset="100.0%" stop-color="#B482F0"/></linearGradient></defs><rect x="0" y="0" width="1000" height="1474" rx="18" fill="#0E1116"/><text x="30" y="56" font-family="-apple-system,Segoe UI,system-ui,sans-serif" font-size="30" font-weight="800" fill="#E9E9EC" letter-spacing="0.5">GLOBE LAYER CATALOG</text><rect x="30" y="66" width="74" height="4" rx="2" fill="#FAAFA5"/><text x="30" y="90" font-family="ui-monospace,Menlo,monospace" font-size="12" fill="#9AA0AA">xyz-earth - every globe filter: animate, overlay, annotation</text><circle cx="34" cy="104" r="4" fill="#69DB88"/><text x="43" y="108" font-family="ui-monospace,Menlo,monospace" font-size="10" fill="#9AA0AA">live</text><circle cx="81.6" cy="104" r="4" fill="#C9A36A"/><text x="90.6" y="108" font-family="ui-monospace,Menlo,monospace" font-size="10" fill="#9AA0AA">representative</text><circle cx="193.2" cy="104" r="4" fill="#14B8A6"/><text x="202.2" y="108" font-family="ui-monospace,Menlo,monospace" font-size="10" fill="#9AA0AA">derived</text><circle cx="260.0" cy="104" r="4" fill="#75C8E2"/><text x="269.0" y="108" font-family="ui-monospace,Menlo,monospace" font-size="10" fill="#9AA0AA">asset-backed</text><circle cx="358.8" cy="104" r="4" fill="#6B7280"/><text x="367.8" y="108" font-family="ui-monospace,Menlo,monospace" font-size="10" fill="#9AA0AA">research</text><circle cx="432.0" cy="104" r="4" fill="#53585A"/><text x="441.0" y="108" font-family="ui-monospace,Menlo,monospace" font-size="10" fill="#9AA0AA">parked</text><text x="30" y="134" font-family="-apple-system,Segoe UI,system-ui,sans-serif" font-size="11" font-weight="700" letter-spacing="1.4" fill="#8B909A">ANIMATE / FLOW FIELDS</text><line x1="30" y1="144" x2="970" y2="144" stroke="#2A2F37" stroke-width="1"/><rect x="30.0" y="160" width="302.7" height="92" rx="12" fill="#161A21" stroke="#2A2F3A" stroke-width="1"/><circle cx="56.0" cy="190" r="9" fill="url(#g0)" stroke="rgba(0,0,0,.55)" stroke-width="1.2"/><text x="78.0" y="186" font-family="-apple-system,Segoe UI,system-ui,sans-serif" font-size="14" font-weight="700" fill="#E9E9EC">Wind</text><text x="78.0" y="204" font-family="ui-monospace,Menlo,monospace" font-size="10.5" fill="#9AA0AA">GFS u/v . particle flow</text><rect x="289" y="172" width="32" height="18" rx="9" fill="#222630" stroke="#69DB88" stroke-width="1"/><text x="305" y="185" text-anchor="middle" font-family="ui-monospace,Menlo,monospace" font-size="9.5" font-weight="700" fill="#69DB88">live</text><rect x="44.0" y="234" width="274.7" height="8" rx="4" fill="url(#g0)"/><rect x="348.7" y="160" width="302.7" height="92" rx="12" fill="#161A21" stroke="#2A2F3A" stroke-width="1"/><circle cx="374.6666666666667" cy="190" r="9" fill="url(#g1)" stroke="rgba(0,0,0,.55)" stroke-width="1.2"/><text x="396.7" y="186" font-family="-apple-system,Segoe UI,system-ui,sans-serif" font-size="14" font-weight="700" fill="#E9E9EC">Ocean Currents</text><text x="396.7" y="204" font-family="ui-monospace,Menlo,monospace" font-size="10.5" fill="#9AA0AA">OSCAR . particle flow</text><rect x="583" y="172" width="56" height="18" rx="9" fill="#222630" stroke="#6B7280" stroke-width="1"/><text x="611" y="185" text-anchor="middle" font-family="ui-monospace,Menlo,monospace" font-size="9.5" font-weight="700" fill="#6B7280">research</text><rect x="362.7" y="234" width="274.7" height="8" rx="4" fill="url(#g1)"/><rect x="667.3" y="160" width="302.7" height="92" rx="12" fill="#161A21" stroke="#2A2F3A" stroke-width="1"/><circle cx="693.3333333333334" cy="190" r="9" fill="url(#g2)" stroke="rgba(0,0,0,.55)" stroke-width="1.2"/><text x="715.3" y="186" font-family="-apple-system,Segoe UI,system-ui,sans-serif" font-size="14" font-weight="700" fill="#E9E9EC">Ocean Waves</text><text x="715.3" y="204" font-family="ui-monospace,Menlo,monospace" font-size="10.5" fill="#9AA0AA">WaveWatch III . flow</text><rect x="866" y="172" width="92" height="18" rx="9" fill="#222630" stroke="#C9A36A" stroke-width="1"/><text x="912" y="185" text-anchor="middle" font-family="ui-monospace,Menlo,monospace" font-size="9.5" font-weight="700" fill="#C9A36A">representative</text><rect x="681.3" y="234" width="274.7" height="8" rx="4" fill="url(#g2)"/><text x="30" y="288" font-family="-apple-system,Segoe UI,system-ui,sans-serif" font-size="11" font-weight="700" letter-spacing="1.4" fill="#8B909A">OVERLAY / SCALAR VALUE RAMPS</text><line x1="30" y1="298" x2="970" y2="298" stroke="#2A2F37" stroke-width="1"/><rect x="30.0" y="314" width="302.7" height="92" rx="12" fill="#161A21" stroke="#2A2F3A" stroke-width="1"/><circle cx="56.0" cy="344" r="9" fill="url(#g3)" stroke="rgba(0,0,0,.55)" stroke-width="1.2"/><text x="78.0" y="340" font-family="-apple-system,Segoe UI,system-ui,sans-serif" font-size="14" font-weight="700" fill="#E9E9EC">Wind speed</text><text x="78.0" y="358" font-family="ui-monospace,Menlo,monospace" font-size="10.5" fill="#9AA0AA">|u,v| . km/h . NEW</text><rect x="289" y="326" width="32" height="18" rx="9" fill="#222630" stroke="#69DB88" stroke-width="1"/><text x="305" y="339" text-anchor="middle" font-family="ui-monospace,Menlo,monospace" font-size="9.5" font-weight="700" fill="#69DB88">live</text><rect x="44.0" y="388" width="274.7" height="8" rx="4" fill="url(#g3)"/><rect x="348.7" y="314" width="302.7" height="92" rx="12" fill="#161A21" stroke="#2A2F3A" stroke-width="1"/><circle cx="374.6666666666667" cy="344" r="9" fill="url(#g4)" stroke="rgba(0,0,0,.55)" stroke-width="1.2"/><text x="396.7" y="340" font-family="-apple-system,Segoe UI,system-ui,sans-serif" font-size="14" font-weight="700" fill="#E9E9EC">Air Quality</text><text x="396.7" y="358" font-family="ui-monospace,Menlo,monospace" font-size="10.5" fill="#9AA0AA">US AQI . PM/O3</text><rect x="547" y="326" width="92" height="18" rx="9" fill="#222630" stroke="#C9A36A" stroke-width="1"/><text x="593" y="339" text-anchor="middle" font-family="ui-monospace,Menlo,monospace" font-size="9.5" font-weight="700" fill="#C9A36A">representative</text><rect x="362.7" y="388" width="274.7" height="8" rx="4" fill="url(#g4)"/><rect x="667.3" y="314" width="302.7" height="92" rx="12" fill="#161A21" stroke="#2A2F3A" stroke-width="1"/><circle cx="693.3333333333334" cy="344" r="9" fill="url(#g5)" stroke="rgba(0,0,0,.55)" stroke-width="1.2"/><text x="715.3" y="340" font-family="-apple-system,Segoe UI,system-ui,sans-serif" font-size="14" font-weight="700" fill="#E9E9EC">Bleaching Alert</text><text x="715.3" y="358" font-family="ui-monospace,Menlo,monospace" font-size="10.5" fill="#9AA0AA">Coral Reef Watch 0-4</text><rect x="866" y="326" width="92" height="18" rx="9" fill="#222630" stroke="#C9A36A" stroke-width="1"/><text x="912" y="339" text-anchor="middle" font-family="ui-monospace,Menlo,monospace" font-size="9.5" font-weight="700" fill="#C9A36A">representative</text><rect x="681.3" y="388" width="274.7" height="8" rx="4" fill="url(#g5)"/><rect x="30.0" y="422" width="302.7" height="92" rx="12" fill="#161A21" stroke="#2A2F3A" stroke-width="1"/><circle cx="56.0" cy="452" r="9" fill="url(#g6)" stroke="rgba(0,0,0,.55)" stroke-width="1.2"/><text x="78.0" y="448" font-family="-apple-system,Segoe UI,system-ui,sans-serif" font-size="14" font-weight="700" fill="#E9E9EC">CAPE</text><text x="78.0" y="466" font-family="ui-monospace,Menlo,monospace" font-size="10.5" fill="#9AA0AA">GFS instability . J/kg</text><rect x="229" y="434" width="92" height="18" rx="9" fill="#222630" stroke="#C9A36A" stroke-width="1"/><text x="275" y="447" text-anchor="middle" font-family="ui-monospace,Menlo,monospace" font-size="9.5" font-weight="700" fill="#C9A36A">representative</text><rect x="44.0" y="496" width="274.7" height="8" rx="4" fill="url(#g6)"/><rect x="348.7" y="422" width="302.7" height="92" rx="12" fill="#161A21" stroke="#2A2F3A" stroke-width="1"/><circle cx="374.6666666666667" cy="452" r="9" fill="url(#g7)" stroke="rgba(0,0,0,.55)" stroke-width="1.2"/><text x="396.7" y="448" font-family="-apple-system,Segoe UI,system-ui,sans-serif" font-size="14" font-weight="700" fill="#E9E9EC">Chemistry (NO2)</text><text x="396.7" y="466" font-family="ui-monospace,Menlo,monospace" font-size="10.5" fill="#9AA0AA">CAMS column NO2</text><rect x="547" y="434" width="92" height="18" rx="9" fill="#222630" stroke="#C9A36A" stroke-width="1"/><text x="593" y="447" text-anchor="middle" font-family="ui-monospace,Menlo,monospace" font-size="9.5" font-weight="700" fill="#C9A36A">representative</text><rect x="362.7" y="496" width="274.7" height="8" rx="4" fill="url(#g7)"/><rect x="667.3" y="422" width="302.7" height="92" rx="12" fill="#161A21" stroke="#2A2F3A" stroke-width="1"/><circle cx="693.3333333333334" cy="452" r="9" fill="url(#g8)" stroke="rgba(0,0,0,.55)" stroke-width="1.2"/><text x="715.3" y="448" font-family="-apple-system,Segoe UI,system-ui,sans-serif" font-size="14" font-weight="700" fill="#E9E9EC">Dust (AOD)</text><text x="715.3" y="466" font-family="ui-monospace,Menlo,monospace" font-size="10.5" fill="#9AA0AA">CAMS AOD 550nm</text><rect x="866" y="434" width="92" height="18" rx="9" fill="#222630" stroke="#C9A36A" stroke-width="1"/><text x="912" y="447" text-anchor="middle" font-family="ui-monospace,Menlo,monospace" font-size="9.5" font-weight="700" fill="#C9A36A">representative</text><rect x="681.3" y="496" width="274.7" height="8" rx="4" fill="url(#g8)"/><rect x="30.0" y="530" width="302.7" height="92" rx="12" fill="#161A21" stroke="#2A2F3A" stroke-width="1"/><circle cx="56.0" cy="560" r="9" fill="url(#g9)" stroke="rgba(0,0,0,.55)" stroke-width="1.2"/><text x="78.0" y="556" font-family="-apple-system,Segoe UI,system-ui,sans-serif" font-size="14" font-weight="700" fill="#E9E9EC">Particulates (PM2.5)</text><text x="78.0" y="574" font-family="ui-monospace,Menlo,monospace" font-size="10.5" fill="#9AA0AA">CAMS surface PM2.5</text><rect x="229" y="542" width="92" height="18" rx="9" fill="#222630" stroke="#C9A36A" stroke-width="1"/><text x="275" y="555" text-anchor="middle" font-family="ui-monospace,Menlo,monospace" font-size="9.5" font-weight="700" fill="#C9A36A">representative</text><rect x="44.0" y="604" width="274.7" height="8" rx="4" fill="url(#g9)"/><rect x="348.7" y="530" width="302.7" height="92" rx="12" fill="#161A21" stroke="#2A2F3A" stroke-width="1"/><circle cx="374.6666666666667" cy="560" r="9" fill="url(#g10)" stroke="rgba(0,0,0,.55)" stroke-width="1.2"/><text x="396.7" y="556" font-family="-apple-system,Segoe UI,system-ui,sans-serif" font-size="14" font-weight="700" fill="#E9E9EC">Sea Surface Temp</text><text x="396.7" y="574" font-family="ui-monospace,Menlo,monospace" font-size="10.5" fill="#9AA0AA">NOAA OISST . degC</text><rect x="547" y="542" width="92" height="18" rx="9" fill="#222630" stroke="#C9A36A" stroke-width="1"/><text x="593" y="555" text-anchor="middle" font-family="ui-monospace,Menlo,monospace" font-size="9.5" font-weight="700" fill="#C9A36A">representative</text><rect x="362.7" y="604" width="274.7" height="8" rx="4" fill="url(#g10)"/><rect x="667.3" y="530" width="302.7" height="92" rx="12" fill="#161A21" stroke="#2A2F3A" stroke-width="1"/><circle cx="693.3333333333334" cy="560" r="9" fill="url(#g11)" stroke="rgba(0,0,0,.55)" stroke-width="1.2"/><text x="715.3" y="556" font-family="-apple-system,Segoe UI,system-ui,sans-serif" font-size="14" font-weight="700" fill="#E9E9EC">SST Anomaly</text><text x="715.3" y="574" font-family="ui-monospace,Menlo,monospace" font-size="10.5" fill="#9AA0AA">vs 1991-2020 climo</text><rect x="866" y="542" width="92" height="18" rx="9" fill="#222630" stroke="#C9A36A" stroke-width="1"/><text x="912" y="555" text-anchor="middle" font-family="ui-monospace,Menlo,monospace" font-size="9.5" font-weight="700" fill="#C9A36A">representative</text><rect x="681.3" y="604" width="274.7" height="8" rx="4" fill="url(#g11)"/><rect x="30.0" y="638" width="302.7" height="92" rx="12" fill="#161A21" stroke="#2A2F3A" stroke-width="1"/><circle cx="56.0" cy="668" r="9" fill="url(#g12)" stroke="rgba(0,0,0,.55)" stroke-width="1.2"/><text x="78.0" y="664" font-family="-apple-system,Segoe UI,system-ui,sans-serif" font-size="14" font-weight="700" fill="#E9E9EC">Misery Index</text><text x="78.0" y="682" font-family="ui-monospace,Menlo,monospace" font-size="10.5" fill="#9AA0AA">feels-like . heat+chill</text><rect x="229" y="650" width="92" height="18" rx="9" fill="#222630" stroke="#C9A36A" stroke-width="1"/><text x="275" y="663" text-anchor="middle" font-family="ui-monospace,Menlo,monospace" font-size="9.5" font-weight="700" fill="#C9A36A">representative</text><rect x="44.0" y="712" width="274.7" height="8" rx="4" fill="url(#g12)"/><rect x="348.7" y="638" width="302.7" height="92" rx="12" fill="#161A21" stroke="#2A2F3A" stroke-width="1"/><circle cx="374.6666666666667" cy="668" r="9" fill="url(#g13)" stroke="rgba(0,0,0,.55)" stroke-width="1.2"/><text x="396.7" y="664" font-family="-apple-system,Segoe UI,system-ui,sans-serif" font-size="14" font-weight="700" fill="#E9E9EC">Forest Density</text><text x="396.7" y="682" font-family="ui-monospace,Menlo,monospace" font-size="10.5" fill="#9AA0AA">tree-cover density</text><rect x="589" y="650" width="50" height="18" rx="9" fill="#222630" stroke="#14B8A6" stroke-width="1"/><text x="614" y="663" text-anchor="middle" font-family="ui-monospace,Menlo,monospace" font-size="9.5" font-weight="700" fill="#14B8A6">derived</text><rect x="362.7" y="712" width="274.7" height="8" rx="4" fill="url(#g13)"/><rect x="667.3" y="638" width="302.7" height="92" rx="12" fill="#161A21" stroke="#2A2F3A" stroke-width="1"/><circle cx="693.3333333333334" cy="668" r="9" fill="url(#g14)" stroke="rgba(0,0,0,.55)" stroke-width="1.2"/><text x="715.3" y="664" font-family="-apple-system,Segoe UI,system-ui,sans-serif" font-size="14" font-weight="700" fill="#E9E9EC">Human Density</text><text x="715.3" y="682" font-family="ui-monospace,Menlo,monospace" font-size="10.5" fill="#9AA0AA">GHS-POP</text><rect x="866" y="650" width="92" height="18" rx="9" fill="#222630" stroke="#C9A36A" stroke-width="1"/><text x="912" y="663" text-anchor="middle" font-family="ui-monospace,Menlo,monospace" font-size="9.5" font-weight="700" fill="#C9A36A">representative</text><rect x="681.3" y="712" width="274.7" height="8" rx="4" fill="url(#g14)"/><rect x="30.0" y="746" width="302.7" height="92" rx="12" fill="#161A21" stroke="#2A2F3A" stroke-width="1"/><circle cx="56.0" cy="776" r="9" fill="url(#g15)" stroke="rgba(0,0,0,.55)" stroke-width="1.2"/><text x="78.0" y="772" font-family="-apple-system,Segoe UI,system-ui,sans-serif" font-size="14" font-weight="700" fill="#E9E9EC">Human Modification</text><text x="78.0" y="790" font-family="ui-monospace,Menlo,monospace" font-size="10.5" fill="#9AA0AA">gHM footprint</text><rect x="229" y="758" width="92" height="18" rx="9" fill="#222630" stroke="#C9A36A" stroke-width="1"/><text x="275" y="771" text-anchor="middle" font-family="ui-monospace,Menlo,monospace" font-size="9.5" font-weight="700" fill="#C9A36A">representative</text><rect x="44.0" y="820" width="274.7" height="8" rx="4" fill="url(#g15)"/><text x="30" y="874" font-family="-apple-system,Segoe UI,system-ui,sans-serif" font-size="11" font-weight="700" letter-spacing="1.4" fill="#8B909A">ANNOTATION / POINT MARKERS</text><line x1="30" y1="884" x2="970" y2="884" stroke="#2A2F37" stroke-width="1"/><rect x="30.0" y="900" width="302.7" height="92" rx="12" fill="#161A21" stroke="#2A2F3A" stroke-width="1"/><polygon points="56.0,921 65.0,938 47.0,938" fill="#5271FF" stroke="rgba(0,0,0,.55)" stroke-width="1.2"/><text x="78.0" y="926" font-family="-apple-system,Segoe UI,system-ui,sans-serif" font-size="14" font-weight="700" fill="#E9E9EC">Flights</text><text x="78.0" y="944" font-family="ui-monospace,Menlo,monospace" font-size="10.5" fill="#9AA0AA">#5271FF . OpenSky . triangle</text><rect x="265" y="912" width="56" height="18" rx="9" fill="#222630" stroke="#6B7280" stroke-width="1"/><text x="293" y="925" text-anchor="middle" font-family="ui-monospace,Menlo,monospace" font-size="9.5" font-weight="700" fill="#6B7280">research</text><rect x="44.0" y="974" width="274.7" height="8" rx="4" fill="#5271FF"/><rect x="348.7" y="900" width="302.7" height="92" rx="12" fill="#161A21" stroke="#2A2F3A" stroke-width="1"/><polygon points="374.6666666666667,921 383.6666666666667,930 374.6666666666667,939 365.6666666666667,930" fill="#75C8E2" stroke="rgba(0,0,0,.55)" stroke-width="1.2"/><text x="396.7" y="926" font-family="-apple-system,Segoe UI,system-ui,sans-serif" font-size="14" font-weight="700" fill="#E9E9EC">Boats</text><text x="396.7" y="944" font-family="ui-monospace,Menlo,monospace" font-size="10.5" fill="#9AA0AA">#75C8E2 . GFW . diamond</text><rect x="583" y="912" width="56" height="18" rx="9" fill="#222630" stroke="#6B7280" stroke-width="1"/><text x="611" y="925" text-anchor="middle" font-family="ui-monospace,Menlo,monospace" font-size="9.5" font-weight="700" fill="#6B7280">research</text><rect x="362.7" y="974" width="274.7" height="8" rx="4" fill="#75C8E2"/><rect x="667.3" y="900" width="302.7" height="92" rx="12" fill="#161A21" stroke="#2A2F3A" stroke-width="1"/><circle cx="693.3333333333334" cy="930" r="9" fill="#D8D8D8" stroke="rgba(0,0,0,.55)" stroke-width="1.2"/><text x="715.3" y="926" font-family="-apple-system,Segoe UI,system-ui,sans-serif" font-size="14" font-weight="700" fill="#E9E9EC">Glaciers</text><text x="715.3" y="944" font-family="ui-monospace,Menlo,monospace" font-size="10.5" fill="#9AA0AA">#D8D8D8 . WGMS</text><rect x="878" y="912" width="80" height="18" rx="9" fill="#222630" stroke="#75C8E2" stroke-width="1"/><text x="918" y="925" text-anchor="middle" font-family="ui-monospace,Menlo,monospace" font-size="9.5" font-weight="700" fill="#75C8E2">asset-backed</text><rect x="681.3" y="974" width="274.7" height="8" rx="4" fill="#D8D8D8"/><rect x="30.0" y="1008" width="302.7" height="92" rx="12" fill="#161A21" stroke="#2A2F3A" stroke-width="1"/><circle cx="56.0" cy="1038" r="9" fill="url(#g19)" stroke="rgba(0,0,0,.55)" stroke-width="1.2"/><text x="78.0" y="1034" font-family="-apple-system,Segoe UI,system-ui,sans-serif" font-size="14" font-weight="700" fill="#E9E9EC">Datacenters</text><text x="78.0" y="1052" font-family="ui-monospace,Menlo,monospace" font-size="10.5" fill="#9AA0AA">#858585 . PeeringDB</text><rect x="229" y="1020" width="92" height="18" rx="9" fill="#222630" stroke="#C9A36A" stroke-width="1"/><text x="275" y="1033" text-anchor="middle" font-family="ui-monospace,Menlo,monospace" font-size="9.5" font-weight="700" fill="#C9A36A">representative</text><rect x="44.0" y="1082" width="274.7" height="8" rx="4" fill="url(#g19)"/><rect x="348.7" y="1008" width="302.7" height="92" rx="12" fill="#161A21" stroke="#2A2F3A" stroke-width="1"/><circle cx="374.6666666666667" cy="1038" r="9" fill="url(#g20)" stroke="rgba(0,0,0,.55)" stroke-width="1.2"/><text x="396.7" y="1034" font-family="-apple-system,Segoe UI,system-ui,sans-serif" font-size="14" font-weight="700" fill="#E9E9EC">Top emitters</text><text x="396.7" y="1052" font-family="ui-monospace,Menlo,monospace" font-size="10.5" fill="#9AA0AA">#EDC303 . Climate TRACE</text><rect x="547" y="1020" width="92" height="18" rx="9" fill="#222630" stroke="#C9A36A" stroke-width="1"/><text x="593" y="1033" text-anchor="middle" font-family="ui-monospace,Menlo,monospace" font-size="9.5" font-weight="700" fill="#C9A36A">representative</text><rect x="362.7" y="1082" width="274.7" height="8" rx="4" fill="url(#g20)"/><rect x="667.3" y="1008" width="302.7" height="92" rx="12" fill="#161A21" stroke="#2A2F3A" stroke-width="1"/><circle cx="693.3333333333334" cy="1038" r="9" fill="url(#g21)" stroke="rgba(0,0,0,.55)" stroke-width="1.2"/><text x="715.3" y="1034" font-family="-apple-system,Segoe UI,system-ui,sans-serif" font-size="14" font-weight="700" fill="#E9E9EC">Industrial sites</text><text x="715.3" y="1052" font-family="ui-monospace,Menlo,monospace" font-size="10.5" fill="#9AA0AA">#DD6FA1 . Climate TRACE</text><rect x="866" y="1020" width="92" height="18" rx="9" fill="#222630" stroke="#C9A36A" stroke-width="1"/><text x="912" y="1033" text-anchor="middle" font-family="ui-monospace,Menlo,monospace" font-size="9.5" font-weight="700" fill="#C9A36A">representative</text><rect x="681.3" y="1082" width="274.7" height="8" rx="4" fill="url(#g21)"/><rect x="30.0" y="1116" width="302.7" height="92" rx="12" fill="#161A21" stroke="#2A2F3A" stroke-width="1"/><circle cx="56.0" cy="1146" r="9" fill="url(#g22)" stroke="rgba(0,0,0,.55)" stroke-width="1.2"/><text x="78.0" y="1142" font-family="-apple-system,Segoe UI,system-ui,sans-serif" font-size="14" font-weight="700" fill="#E9E9EC">Extraction sites</text><text x="78.0" y="1160" font-family="ui-monospace,Menlo,monospace" font-size="10.5" fill="#9AA0AA">#A855F7 . Maus mining</text><rect x="229" y="1128" width="92" height="18" rx="9" fill="#222630" stroke="#C9A36A" stroke-width="1"/><text x="275" y="1141" text-anchor="middle" font-family="ui-monospace,Menlo,monospace" font-size="9.5" font-weight="700" fill="#C9A36A">representative</text><rect x="44.0" y="1190" width="274.7" height="8" rx="4" fill="url(#g22)"/><rect x="348.7" y="1116" width="302.7" height="92" rx="12" fill="#161A21" stroke="#2A2F3A" stroke-width="1"/><circle cx="374.6666666666667" cy="1146" r="9" fill="url(#g23)" stroke="rgba(0,0,0,.55)" stroke-width="1.2"/><text x="396.7" y="1142" font-family="-apple-system,Segoe UI,system-ui,sans-serif" font-size="14" font-weight="700" fill="#E9E9EC">Power plants</text><text x="396.7" y="1160" font-family="ui-monospace,Menlo,monospace" font-size="10.5" fill="#9AA0AA">#ED2461 . WRI GPPD</text><rect x="547" y="1128" width="92" height="18" rx="9" fill="#222630" stroke="#C9A36A" stroke-width="1"/><text x="593" y="1141" text-anchor="middle" font-family="ui-monospace,Menlo,monospace" font-size="9.5" font-weight="700" fill="#C9A36A">representative</text><rect x="362.7" y="1190" width="274.7" height="8" rx="4" fill="url(#g23)"/><rect x="667.3" y="1116" width="302.7" height="92" rx="12" fill="#161A21" stroke="#2A2F3A" stroke-width="1"/><circle cx="693.3333333333334" cy="1146" r="9" fill="url(#g24)" stroke="rgba(0,0,0,.55)" stroke-width="1.2"/><text x="715.3" y="1142" font-family="-apple-system,Segoe UI,system-ui,sans-serif" font-size="14" font-weight="700" fill="#E9E9EC">Threatened species</text><text x="715.3" y="1160" font-family="ui-monospace,Menlo,monospace" font-size="10.5" fill="#9AA0AA">#E3D6AA . IUCN/GBIF</text><rect x="866" y="1128" width="92" height="18" rx="9" fill="#222630" stroke="#C9A36A" stroke-width="1"/><text x="912" y="1141" text-anchor="middle" font-family="ui-monospace,Menlo,monospace" font-size="9.5" font-weight="700" fill="#C9A36A">representative</text><rect x="681.3" y="1190" width="274.7" height="8" rx="4" fill="url(#g24)"/><rect x="30.0" y="1224" width="302.7" height="92" rx="12" fill="#161A21" stroke="#2A2F3A" stroke-width="1"/><circle cx="56.0" cy="1254" r="9" fill="url(#g25)" stroke="rgba(0,0,0,.55)" stroke-width="1.2"/><text x="78.0" y="1250" font-family="-apple-system,Segoe UI,system-ui,sans-serif" font-size="14" font-weight="700" fill="#E9E9EC">Protected areas</text><text x="78.0" y="1268" font-family="ui-monospace,Menlo,monospace" font-size="10.5" fill="#9AA0AA">#16A34A . WDPA</text><rect x="229" y="1236" width="92" height="18" rx="9" fill="#222630" stroke="#C9A36A" stroke-width="1"/><text x="275" y="1249" text-anchor="middle" font-family="ui-monospace,Menlo,monospace" font-size="9.5" font-weight="700" fill="#C9A36A">representative</text><rect x="44.0" y="1298" width="274.7" height="8" rx="4" fill="url(#g25)"/><rect x="348.7" y="1224" width="302.7" height="92" rx="12" fill="#161A21" stroke="#2A2F3A" stroke-width="1"/><circle cx="374.6666666666667" cy="1254" r="9" fill="url(#g26)" stroke="rgba(0,0,0,.55)" stroke-width="1.2"/><text x="396.7" y="1250" font-family="-apple-system,Segoe UI,system-ui,sans-serif" font-size="14" font-weight="700" fill="#E9E9EC">Carbon offset / VCM</text><text x="396.7" y="1268" font-family="ui-monospace,Menlo,monospace" font-size="10.5" fill="#9AA0AA">#14B8A6 . Berkeley</text><rect x="547" y="1236" width="92" height="18" rx="9" fill="#222630" stroke="#C9A36A" stroke-width="1"/><text x="593" y="1249" text-anchor="middle" font-family="ui-monospace,Menlo,monospace" font-size="9.5" font-weight="700" fill="#C9A36A">representative</text><rect x="362.7" y="1298" width="274.7" height="8" rx="4" fill="url(#g26)"/><rect x="667.3" y="1224" width="302.7" height="92" rx="12" fill="#161A21" stroke="#2A2F3A" stroke-width="1"/><circle cx="693.3333333333334" cy="1254" r="9" fill="url(#g27)" stroke="rgba(0,0,0,.55)" stroke-width="1.2"/><text x="715.3" y="1250" font-family="-apple-system,Segoe UI,system-ui,sans-serif" font-size="14" font-weight="700" fill="#E9E9EC">Wildfires</text><text x="715.3" y="1268" font-family="ui-monospace,Menlo,monospace" font-size="10.5" fill="#9AA0AA">#F97316 . FIRMS . fire-&gt;red</text><rect x="926" y="1236" width="32" height="18" rx="9" fill="#222630" stroke="#69DB88" stroke-width="1"/><text x="942" y="1249" text-anchor="middle" font-family="ui-monospace,Menlo,monospace" font-size="9.5" font-weight="700" fill="#69DB88">live</text><rect x="681.3" y="1298" width="274.7" height="8" rx="4" fill="url(#g27)"/><rect x="30.0" y="1332" width="302.7" height="92" rx="12" fill="#161A21" stroke="#2A2F3A" stroke-width="1"/><circle cx="56.0" cy="1362" r="9" fill="url(#g28)" stroke="rgba(0,0,0,.55)" stroke-width="1.2"/><text x="78.0" y="1358" font-family="-apple-system,Segoe UI,system-ui,sans-serif" font-size="14" font-weight="700" fill="#E9E9EC">Satellites</text><text x="78.0" y="1376" font-family="ui-monospace,Menlo,monospace" font-size="10.5" fill="#9AA0AA">LEO/MEO/GEO . orbital</text><rect x="277" y="1344" width="44" height="18" rx="9" fill="#222630" stroke="#53585A" stroke-width="1"/><text x="299" y="1357" text-anchor="middle" font-family="ui-monospace,Menlo,monospace" font-size="9.5" font-weight="700" fill="#53585A">parked</text><rect x="44.0" y="1406" width="274.7" height="8" rx="4" fill="url(#g28)"/></svg>